<svg viewBox="0 0 887.25 846.22">
<path class="svglogo" d="M497.47,683.06,384,597.09v158L277.81,862.92,140,751.11c0-69.7,0-424.58,0-490.55L275.75,140,504.53,378.1c23.37-25.75,205.78-226.71,221.4-243.93L859,256.24c0,63.21,0,431.38,0,496.06L725.54,862.51,616,752.08V593.19L498.12,683.55Z" transform="translate(-57.41 -77.39)"  ></path><line class="svglogo" x1="326.76" y1="522.52" x2="217.59" y2="61.61"></line><line class="svglogo" x1="217.59" y1="61.61" x2="440.59" y2="604.61"></line><line class="svglogo" x1="445.59" y1="299.61" x2="82.54" y2="183.81" ></line><line class="svglogo" x1="82.59" y1="183.61" x2="558.34" y2="515.53"></line><line class="svglogo" x1="326.59" y1="677.61" x2="81.97" y2="184.67"></line><line class="svglogo" x1="82.22" y1="184.66" x2="220.47" y2="785.45"></line><line class="svglogo" x2="82.03" y2="673.54" x1="446.84" y1="300.86"></line><line class="svglogo" x1="82.84" y1="673.84" x2="801.65" y2="178.44" ></line><path class="svglogo" d="M501,923.61a459.41,459.41,0,0,1-172.67-33.24,444.09,444.09,0,0,1-141-90.67A421.22,421.22,0,0,1,92.28,665.21a406.42,406.42,0,0,1,0-329.41,421.22,421.22,0,0,1,95.07-134.49,444.09,444.09,0,0,1,141-90.67,465,465,0,0,1,345.34,0,444,444,0,0,1,141,90.67A421.09,421.09,0,0,1,909.79,335.8a406.42,406.42,0,0,1,0,329.41A421.09,421.09,0,0,1,814.71,799.7a444,444,0,0,1-141,90.67A459.37,459.37,0,0,1,501,923.61Zm0-845.22a458.43" transform="translate(-57.41 -77.39)">
</path>
</svg>